<?xml version="1.0" encoding="UTF-8" standalone="no"?>
<!-- Created with Inkscape (http://www.inkscape.org/) -->

<svg
   width="500"
   height="500"
   viewBox="600 150 132.29167 132.29167"
   version="1.1"
   id="svg5780"
   xml:space="preserve"
   xmlns="http://www.w3.org/2000/svg"
   xmlns:svg="http://www.w3.org/2000/svg"
   xmlns:rdf="http://www.w3.org/1999/02/22-rdf-syntax-ns#"
   xmlns:cc="http://creativecommons.org/ns#"
   xmlns:dc="http://purl.org/dc/elements/1.1/"><defs
     id="defs5777" /><g
     id="layer1"><path
       style="fill:#ab9e91;stroke-width:0.264583"
       d="m 628.66779,266.45102 c 0.32911,-0.0633 0.80536,-0.0609 1.05833,0.005 0.25296,0.0662 -0.0163,0.118 -0.5984,0.11506 -0.58208,-0.003 -0.78905,-0.0571 -0.45993,-0.1204 z m 32.67295,0.005 c 0.25466,-0.0666 0.67138,-0.0666 0.92604,0 0.25467,0.0666 0.0463,0.121 -0.46302,0.121 -0.50932,0 -0.71768,-0.0545 -0.46302,-0.121 z m -28.97187,-0.25743 c 0.1819,-0.0734 0.47955,-0.0734 0.66146,0 0.1819,0.0734 0.0331,0.13345 -0.33073,0.13345 -0.36381,0 -0.51263,-0.0601 -0.33073,-0.13345 z m 19.48783,-4.19039 c 2.6e-4,-2.32833 0.0408,-3.24541 0.0899,-2.03796 0.0491,1.20746 0.0489,3.11246 -5.3e-4,4.23334 -0.0495,1.12088 -0.0897,0.13296 -0.0893,-2.19538 z m 14.44125,2.59189 c -0.0707,-0.90279 -0.0325,-1.54487 0.085,-1.42684 0.11747,0.11803 0.17532,0.85668 0.12856,1.64144 -0.085,1.42685 -0.085,1.42685 -0.21357,-0.2146 z m 19.00412,1.06383 c 0.191,-0.0764 0.4192,-0.067 0.50712,0.0209 0.0879,0.0879 -0.0683,0.15045 -0.34727,0.13896 -0.30822,-0.0127 -0.37092,-0.0754 -0.15985,-0.15985 z m 5.98027,-4.84634 c 0,-2.69214 0.0393,-3.79347 0.0873,-2.4474 0.048,1.34607 0.048,3.54873 0,4.89479 -0.048,1.34607 -0.0873,0.24474 -0.0873,-2.44739 z m -22.77504,1.5875 c 0,-1.09141 0.0467,-1.53789 0.10379,-0.99219 0.0571,0.5457 0.0571,1.43867 0,1.98438 -0.0571,0.5457 -0.10379,0.0992 -0.10379,-0.99219 z m -12.2389,1.16858 c 0.0127,-0.30823 0.0754,-0.37092 0.15985,-0.15986 0.0764,0.191 0.067,0.4192 -0.0209,0.50712 -0.0879,0.0879 -0.15046,-0.0684 -0.13897,-0.34726 z m 23.08255,-1.16858 c 0,-0.94589 0.048,-1.33284 0.10671,-0.8599 0.0587,0.47294 0.0587,1.24685 0,1.71979 -0.0587,0.47295 -0.10671,0.086 -0.10671,-0.85989 z m -6.88457,0 c 0,-0.80037 0.0496,-1.12779 0.11022,-0.72761 0.0606,0.40019 0.0606,1.05503 0,1.45521 -0.0606,0.40018 -0.11022,0.0728 -0.11022,-0.7276 z m -37.57805,0 c 0,-0.65485 0.0516,-0.92274 0.11466,-0.59531 0.0631,0.32742 0.0631,0.8632 0,1.19062 -0.0631,0.32742 -0.11466,0.0595 -0.11466,-0.59531 z m 27.77533,0.87595 c 0.25466,-0.0665 0.67138,-0.0665 0.92604,0 0.25466,0.0666 0.0463,0.121 -0.46302,0.121 -0.50932,0 -0.71768,-0.0545 -0.46302,-0.121 z m -39.90794,-4.97699 c 2.5e-4,-2.7649 0.0395,-3.86004 0.0871,-2.43366 0.0477,1.42639 0.0475,3.68858 -4.5e-4,5.02709 -0.0479,1.3385 -0.0869,0.17146 -0.0867,-2.59343 z m 7.62877,4.7124 c 0.25466,-0.0665 0.67138,-0.0665 0.92604,0 0.25467,0.0666 0.0463,0.121 -0.46302,0.121 -0.50932,0 -0.71768,-0.0545 -0.46302,-0.121 z m 11.54408,-0.93378 c 0.1218,-0.73472 0.15907,-0.77199 0.24238,-0.24238 0.0542,0.34421 -0.0106,0.7349 -0.14393,0.86821 -0.14679,0.14678 -0.18561,-0.10004 -0.0984,-0.62583 z m -15.47126,-3.91092 c 0,-2.40109 0.0401,-3.38335 0.0891,-2.18281 0.049,1.20055 0.049,3.16508 0,4.36563 -0.049,1.20054 -0.0891,0.21828 -0.0891,-2.18282 z m 73.28551,0.79375 c 0,-1.96453 0.0416,-2.7682 0.0926,-1.78593 0.0509,0.98226 0.0509,2.58961 0,3.57187 -0.0509,0.98227 -0.0926,0.1786 -0.0926,-1.78594 z m -38.13749,2.71422 c 0.98226,-0.0509 2.58961,-0.0509 3.57187,0 0.98227,0.0509 0.17859,0.0926 -1.78594,0.0926 -1.96453,0 -2.7682,-0.0417 -1.78593,-0.0926 z m 41.51521,-0.33297 c 0,-0.3638 0.0601,-0.51263 0.13345,-0.33072 0.0734,0.1819 0.0734,0.47955 0,0.66145 -0.0734,0.1819 -0.13345,0.0331 -0.13345,-0.33073 z m 6.66944,-3.30729 c 7.9e-4,-1.45521 0.0451,-2.01676 0.0987,-1.2479 0.0536,0.76886 0.0531,1.95949 -10e-4,2.64583 -0.0542,0.68635 -0.0981,0.0573 -0.0974,-1.39793 z m -74.17997,1.35532 c 0,-0.0549 0.20836,-0.2633 0.46302,-0.46303 0.41965,-0.3291 0.42901,-0.31974 0.0999,0.0999 -0.34564,0.44073 -0.56292,0.58089 -0.56292,0.36313 z m 36.84381,-1.35532 c 0.003,-0.58208 0.0571,-0.78905 0.12041,-0.45993 0.0633,0.32912 0.0609,0.80537 -0.005,1.05833 -0.0662,0.25297 -0.118,-0.0163 -0.11507,-0.5984 z m -9.26576,-0.13229 c 0,-0.50932 0.0545,-0.71768 0.12101,-0.46302 0.0665,0.25466 0.0665,0.67138 0,0.92604 -0.0666,0.25466 -0.12101,0.0463 -0.12101,-0.46302 z m -23.4279,0.3326 c 1.99007,-0.0817 2.17497,-0.13632 2.27908,-0.67375 0.0947,-0.48877 0.11922,-0.46532 0.14933,0.14271 0.036,0.72761 0.036,0.72761 -2.27908,0.67375 -2.3151,-0.0538 -2.3151,-0.0538 -0.14933,-0.14271 z m 7.07576,-2.05239 c 0.0184,-1.54452 0.0387,-1.58837 0.74976,-1.61973 0.64451,-0.0284 0.65377,-0.0187 0.0784,0.0825 -0.58914,0.10362 -0.66198,0.26099 -0.74977,1.61973 -0.0972,1.50496 -0.0972,1.50496 -0.0783,-0.0825 z m 56.30423,0.39687 c 0,-0.50932 0.0545,-0.71768 0.121,-0.46302 0.0666,0.25467 0.0666,0.67138 0,0.92605 -0.0666,0.25466 -0.121,0.0463 -0.121,-0.46303 z m 3.175,0 c 0,-0.50932 0.0544,-0.71768 0.121,-0.46302 0.0666,0.25467 0.0666,0.67138 0,0.92605 -0.0666,0.25466 -0.121,0.0463 -0.121,-0.46303 z m -50.04675,0.11025 c 0.0127,-0.30823 0.0754,-0.37092 0.15985,-0.15985 0.0764,0.19099 0.067,0.4192 -0.0209,0.50711 -0.0879,0.0879 -0.15046,-0.0684 -0.13897,-0.34726 z m -17.54953,-0.0209 c 0.1819,-0.0734 0.47955,-0.0734 0.66146,0 0.1819,0.0734 0.0331,0.13345 -0.33073,0.13345 -0.36381,0 -0.51263,-0.0601 -0.33073,-0.13345 z m 22.49267,-0.27649 c 0.32911,-0.0633 0.80536,-0.0609 1.05833,0.005 0.25296,0.0662 -0.0163,0.118 -0.5984,0.11506 -0.58208,-0.003 -0.78905,-0.0571 -0.45993,-0.1204 z m -16.63944,-2.12796 c -0.32911,-0.41964 -0.31975,-0.429 0.0999,-0.0999 0.25466,0.19973 0.46302,0.40808 0.46302,0.46303 0,0.21776 -0.21727,0.0776 -0.56291,-0.36313 z m 7.21714,-0.39687 c 0.036,-0.78165 0.0496,-0.79485 0.14864,-0.14501 0.10159,0.66634 0.21119,0.72134 1.614,0.80987 1.50501,0.095 1.50501,0.095 -0.14864,0.145 -1.65364,0.05 -1.65364,0.05 -1.614,-0.80986 z m -14.90592,-0.1146 c 0.191,-0.0764 0.4192,-0.067 0.50712,0.0209 0.0879,0.0879 -0.0684,0.15045 -0.34727,0.13896 -0.30822,-0.0127 -0.37092,-0.0754 -0.15985,-0.15985 z m 2.76159,-0.26623 c 0.25466,-0.0665 0.67138,-0.0665 0.92604,0 0.25466,0.0665 0.0463,0.12101 -0.46302,0.12101 -0.50932,0 -0.71768,-0.0545 -0.46302,-0.12101 z m -10.57233,-0.54323 c 0.98832,-0.0511 2.53613,-0.0507 3.43958,7.9e-4 0.90345,0.0515 0.0948,0.0933 -1.79694,0.0928 -1.89177,-5.3e-4 -2.63096,-0.0426 -1.64264,-0.0936 z m 24.72754,-0.24336 c 0.1819,-0.0734 0.47955,-0.0734 0.66146,0 0.1819,0.0734 0.0331,0.13345 -0.33073,0.13345 -0.36381,0 -0.51263,-0.0601 -0.33073,-0.13345 z m 0.66649,-3.18312 c 0.25743,-0.0671 0.61462,-0.0627 0.79375,0.01 0.17913,0.0725 -0.0315,0.12736 -0.46806,0.12197 -0.43656,-0.005 -0.58312,-0.0647 -0.32569,-0.13177 z m -6.73537,-3.96614 c 0.19099,-0.0764 0.4192,-0.067 0.50712,0.0209 0.0879,0.0879 -0.0684,0.15046 -0.34727,0.13897 -0.30823,-0.0127 -0.37092,-0.0754 -0.15985,-0.15985 z m 50.00625,0 c 0.19099,-0.0764 0.4192,-0.067 0.50712,0.0209 0.0879,0.0879 -0.0684,0.15046 -0.34727,0.13897 -0.30823,-0.0127 -0.37092,-0.0754 -0.15985,-0.15985 z m -59.63907,-3.85416 c -0.50403,-0.59531 -0.50403,-0.59531 0.0913,-0.0913 0.55945,0.47366 0.71576,0.6866 0.50403,0.6866 -0.0502,0 -0.3181,-0.26789 -0.59531,-0.59532 z m 70.00743,0.23084 c 0,-0.0549 0.20836,-0.2633 0.46302,-0.46302 0.41964,-0.32911 0.429,-0.31975 0.0999,0.0999 -0.34564,0.44073 -0.56291,0.58089 -0.56291,0.36313 z m -56.28507,-6.43346 c 0.25743,-0.0671 0.61462,-0.0627 0.79375,0.01 0.17913,0.0725 -0.0315,0.12736 -0.46806,0.12197 -0.43656,-0.005 -0.58312,-0.0647 -0.32569,-0.13178 z m 42.06875,0 c 0.25743,-0.0671 0.61462,-0.0627 0.79375,0.01 0.17913,0.0725 -0.0315,0.12736 -0.46806,0.12197 -0.43656,-0.005 -0.58312,-0.0647 -0.32569,-0.13178 z m -22.35196,-1.07115 c 0.91521,-0.0518 2.34396,-0.0514 3.175,0.001 0.83104,0.0523 0.0822,0.0947 -1.66402,0.0942 -1.74625,-5.3e-4 -2.42619,-0.0433 -1.51098,-0.0952 z m -5.02092,-0.24915 c 0.191,-0.0764 0.4192,-0.067 0.50712,0.0209 0.0879,0.0879 -0.0684,0.15045 -0.34726,0.13897 -0.30823,-0.0127 -0.37092,-0.0754 -0.15986,-0.15985 z m 12.7,0 c 0.191,-0.0764 0.4192,-0.067 0.50712,0.0209 0.0879,0.0879 -0.0683,0.15045 -0.34726,0.13897 -0.30823,-0.0127 -0.37092,-0.0754 -0.15986,-0.15985 z m -44.3795,-1.5611 c 0.0127,-0.30823 0.0754,-0.37092 0.15985,-0.15986 0.0764,0.191 0.067,0.4192 -0.0209,0.50712 -0.0879,0.0879 -0.15046,-0.0683 -0.13897,-0.34726 z m 76.75986,-0.50712 c 0.005,-0.43656 0.0647,-0.58313 0.13177,-0.3257 0.0671,0.25744 0.0627,0.61462 -0.01,0.79375 -0.0725,0.17913 -0.12736,-0.0315 -0.12197,-0.46805 z m -59.45891,-19.05 c -4e-5,-8.44021 0.0334,-11.93129 0.0743,-7.75795 0.0409,4.17333 0.041,11.07896 7e-5,15.34583 -0.0409,4.26687 -0.0744,0.85233 -0.0744,-7.58788 z m 42.06875,0 c -4e-5,-8.44021 0.0334,-11.93129 0.0743,-7.75795 0.0409,4.17333 0.041,11.07896 7e-5,15.34583 -0.0409,4.26687 -0.0744,0.85233 -0.0744,-7.58788 z m -47.70714,13.89062 c 0,-0.3638 0.06,-0.51263 0.13345,-0.33073 0.0734,0.1819 0.0734,0.47956 0,0.66146 -0.0734,0.1819 -0.13345,0.0331 -0.13345,-0.33073 z m -28.94751,-0.98047 c 0.32742,-0.0631 0.8632,-0.0631 1.19063,0 0.32742,0.0631 0.0595,0.11466 -0.59532,0.11466 -0.65484,0 -0.92273,-0.0516 -0.59531,-0.11466 z m 6.74688,-0.26025 c 0.25466,-0.0665 0.67138,-0.0665 0.92604,0 0.25466,0.0666 0.0463,0.12101 -0.46302,0.12101 -0.50933,0 -0.71769,-0.0545 -0.46302,-0.12101 z m 3.83645,-0.25742 c 0.18191,-0.0734 0.47956,-0.0734 0.66146,0 0.1819,0.0734 0.0331,0.13345 -0.33073,0.13345 -0.3638,0 -0.51263,-0.06 -0.33073,-0.13345 z m 2.91042,-0.26459 c 0.1819,-0.0734 0.47956,-0.0734 0.66146,0 0.1819,0.0734 0.0331,0.13346 -0.33073,0.13346 -0.3638,0 -0.51263,-0.0601 -0.33073,-0.13346 z m 2.66237,-0.27009 c 0.191,-0.0764 0.4192,-0.067 0.50712,0.0209 0.0879,0.0879 -0.0683,0.15045 -0.34727,0.13896 -0.30822,-0.0127 -0.37092,-0.0754 -0.15985,-0.15985 z m 66.26217,-2.06822 c 0.003,-0.58208 0.0571,-0.78905 0.1204,-0.45993 0.0633,0.32911 0.0609,0.80536 -0.005,1.05833 -0.0662,0.25296 -0.11801,-0.0163 -0.11507,-0.5984 z m -53.73537,-0.13229 c 0,-0.3638 0.0601,-0.51263 0.13345,-0.33073 0.0734,0.1819 0.0734,0.47956 0,0.66146 -0.0734,0.1819 -0.13345,0.0331 -0.13345,-0.33073 z m 65.62647,-1.71979 c 0.005,-0.43656 0.0647,-0.58313 0.13178,-0.3257 0.0671,0.25744 0.0627,0.61462 -0.01,0.79375 -0.0725,0.17913 -0.12736,-0.0315 -0.12197,-0.46805 z m -86.50418,-4.8126 c 0.25466,-0.0665 0.67138,-0.0665 0.92604,0 0.25466,0.0666 0.0463,0.12101 -0.46302,0.12101 -0.50932,0 -0.71768,-0.0545 -0.46302,-0.12101 z m 4.10104,-0.25742 c 0.1819,-0.0734 0.47956,-0.0734 0.66146,0 0.1819,0.0734 0.0331,0.13345 -0.33073,0.13345 -0.3638,0 -0.51263,-0.06 -0.33073,-0.13345 z m 3.37344,-0.35394 c 0.0899,-0.14552 0.21603,-0.26458 0.2802,-0.26458 0.0642,0 0.11667,0.11906 0.11667,0.26458 0,0.14552 -0.12609,0.26458 -0.2802,0.26458 -0.1541,0 -0.20661,-0.11906 -0.11667,-0.26458 z m 71.04062,-5.90362 c 0,-0.0455 0.38696,-0.43249 0.8599,-0.8599 0.85989,-0.7771 0.85989,-0.7771 0.0828,0.0828 -0.72437,0.80155 -0.94269,0.98151 -0.94269,0.77711 z m -62.06993,-0.77711 c -0.50403,-0.59531 -0.50403,-0.59531 0.0913,-0.0913 0.55944,0.47366 0.71576,0.68659 0.50403,0.68659 -0.0502,0 -0.3181,-0.26789 -0.59532,-0.59531 z m 0.28972,-5.22552 c 0.2634,-0.29104 0.53843,-0.52917 0.61119,-0.52917 0.0728,0 -0.0832,0.23813 -0.3466,0.52917 -0.26339,0.29104 -0.53842,0.52917 -0.61118,0.52917 -0.0728,0 0.0832,-0.23813 0.34659,-0.52917 z m 61.76019,-0.19844 c -0.64144,-0.7276 -0.64144,-0.7276 0.0862,-0.0862 0.68006,0.59952 0.84894,0.81378 0.64143,0.81378 -0.0474,0 -0.37481,-0.32742 -0.7276,-0.72761 z m -31.26387,-0.51786 c 0.32912,-0.0633 0.80537,-0.0609 1.05833,0.005 0.25297,0.0662 -0.0163,0.118 -0.5984,0.11507 -0.58208,-0.003 -0.78905,-0.0571 -0.45993,-0.12041 z m -5.29475,-0.25268 c 0.1819,-0.0734 0.47955,-0.0734 0.66146,0 0.1819,0.0734 0.0331,0.13346 -0.33073,0.13346 -0.36381,0 -0.51263,-0.0601 -0.33073,-0.13346 z m 11.12903,-0.006 c 0.191,-0.0764 0.4192,-0.067 0.50712,0.0209 0.0879,0.0879 -0.0684,0.15046 -0.34726,0.13897 -0.30823,-0.0127 -0.37092,-0.0754 -0.15986,-0.15985 z m 42.06875,-1.32292 c 0.191,-0.0764 0.4192,-0.067 0.50712,0.0209 0.0879,0.0879 -0.0684,0.15045 -0.34726,0.13896 -0.30823,-0.0127 -0.37092,-0.0754 -0.15986,-0.15985 z m -94.47278,-0.25908 c 0.1819,-0.0734 0.47955,-0.0734 0.66146,0 0.1819,0.0734 0.0331,0.13346 -0.33073,0.13346 -0.36381,0 -0.51263,-0.0601 -0.33073,-0.13346 z m 5.35781,-1.51217 c 0,-0.0549 0.20836,-0.2633 0.46302,-0.46302 0.41965,-0.3291 0.429,-0.31974 0.0999,0.0999 -0.34565,0.44073 -0.56292,0.58089 -0.56292,0.36312 z m 21.64622,-2.46209 c 0.191,-0.0764 0.4192,-0.067 0.50712,0.0209 0.0879,0.0879 -0.0684,0.15045 -0.34726,0.13896 -0.30823,-0.0127 -0.37092,-0.0754 -0.15986,-0.15985 z m 39.95209,0 c 0.19099,-0.0764 0.4192,-0.067 0.50712,0.0209 0.0879,0.0879 -0.0684,0.15045 -0.34727,0.13896 -0.30823,-0.0127 -0.37092,-0.0754 -0.15985,-0.15985 z m 18.90175,-5.77238 c 0.003,-0.58209 0.0571,-0.78906 0.1204,-0.45994 0.0633,0.32912 0.0609,0.80537 -0.005,1.05833 -0.0662,0.25297 -0.11801,-0.0163 -0.11507,-0.59839 z m -65.64162,-0.39688 c 0,-0.3638 0.0601,-0.51263 0.13345,-0.33073 0.0734,0.1819 0.0734,0.47956 0,0.66146 -0.0734,0.1819 -0.13345,0.0331 -0.13345,-0.33073 z m 53.72022,-2.51354 c 0.005,-0.43656 0.0647,-0.58313 0.13178,-0.32569 0.0671,0.25743 0.0627,0.61461 -0.01,0.79375 -0.0725,0.17913 -0.12736,-0.0315 -0.12197,-0.46806 z m -53.44583,-1.85208 c 0.005,-0.43657 0.0647,-0.58313 0.13177,-0.3257 0.0671,0.25743 0.0627,0.61462 -0.01,0.79375 -0.0725,0.17913 -0.12736,-0.0315 -0.12197,-0.46805 z m 25.68279,-0.85132 c 0.40218,-0.0608 0.99749,-0.0592 1.32291,0.004 0.32543,0.0628 -0.004,0.11256 -0.73124,0.11057 -0.7276,-0.002 -0.99386,-0.0534 -0.59167,-0.11418 z m 27.46777,-4.4624 c 0.0127,-0.30822 0.0754,-0.37092 0.15985,-0.15985 0.0764,0.19099 0.067,0.4192 -0.0209,0.50712 -0.0879,0.0879 -0.15045,-0.0684 -0.13896,-0.34727 z m -64.80203,-0.63941 c 0,-0.3638 0.0601,-0.51263 0.13345,-0.33073 0.0734,0.1819 0.0734,0.47956 0,0.66146 -0.0734,0.1819 -0.13345,0.0331 -0.13345,-0.33073 z m 11.88536,-0.15434 c 0.0127,-0.30822 0.0754,-0.37092 0.15985,-0.15985 0.0764,0.19099 0.067,0.4192 -0.0209,0.50712 -0.0879,0.0879 -0.15046,-0.0684 -0.13897,-0.34727 z m 38.55867,0.23819 c 0.191,-0.0764 0.4192,-0.067 0.50712,0.0209 0.0879,0.0879 -0.0683,0.15045 -0.34727,0.13897 -0.30822,-0.0127 -0.37092,-0.0754 -0.15985,-0.15985 z m 26.28514,-0.34843 c 0,-0.3638 0.06,-0.51263 0.13345,-0.33073 0.0734,0.1819 0.0734,0.47956 0,0.66146 -0.0734,0.1819 -0.13345,0.0331 -0.13345,-0.33073 z m -27.75325,-2.04194 c 0.40219,-0.0608 0.9975,-0.0592 1.32292,0.004 0.32542,0.0628 -0.004,0.11256 -0.73124,0.11058 -0.72761,-0.002 -0.99386,-0.0534 -0.59168,-0.11419 z m -31.7486,-1.05183 c 0.25743,-0.0671 0.61462,-0.0627 0.79375,0.01 0.17913,0.0725 -0.0315,0.12736 -0.46806,0.12197 -0.43656,-0.005 -0.58312,-0.0647 -0.32569,-0.13177 z m 42.06875,0 c 0.25743,-0.0671 0.61462,-0.0627 0.79375,0.01 0.17913,0.0725 -0.0315,0.12736 -0.46806,0.12197 -0.43656,-0.005 -0.58312,-0.0647 -0.32569,-0.13177 z m -56.03056,-6.16665 c 0.2634,-0.29104 0.53843,-0.52916 0.61119,-0.52916 0.0728,0 -0.0832,0.23812 -0.3466,0.52916 -0.26339,0.29104 -0.53842,0.52917 -0.61118,0.52917 -0.0728,0 0.0832,-0.23813 0.34659,-0.52917 z m 69.94855,-0.19844 c -0.32911,-0.41964 -0.31975,-0.429 0.0999,-0.0999 0.44073,0.34564 0.58089,0.56292 0.36313,0.56292 -0.0549,0 -0.2633,-0.20836 -0.46302,-0.46303 z m -20.0537,-2.07256 c 0.0127,-0.30823 0.0754,-0.37092 0.15985,-0.15986 0.0764,0.191 0.067,0.4192 -0.0209,0.50712 -0.0879,0.0879 -0.15046,-0.0683 -0.13897,-0.34726 z m 10.24825,-1.6139 c 0.191,-0.0764 0.4192,-0.067 0.50712,0.0209 0.0879,0.0879 -0.0684,0.15046 -0.34726,0.13897 -0.30823,-0.0127 -0.37092,-0.0754 -0.15986,-0.15985 z"
       id="path316" /><path
       style="fill:#698eb7;stroke-width:0.264583"
       d="m 702.75277,265.91723 c 0.47555,-0.0589 1.18993,-0.0577 1.5875,0.003 0.39758,0.0604 0.008,0.10855 -0.86463,0.10707 -0.87313,-0.002 -1.19842,-0.0509 -0.72287,-0.10977 z m 12.30203,0.002 c 0.40218,-0.0608 0.99749,-0.0592 1.32291,0.004 0.32543,0.0628 -0.004,0.11256 -0.73124,0.11058 -0.7276,-0.002 -0.99386,-0.0534 -0.59167,-0.11419 z m -27.20264,-0.41037 c -0.0708,-0.18453 -0.0947,-3.30992 -0.053,-6.94531 l 0.0757,-6.60981 0.0613,6.80039 c 0.0613,6.80044 0.0613,6.80044 1.71495,6.89437 1.65364,0.0939 1.65364,0.0939 -0.008,0.14492 -1.13759,0.0349 -1.70257,-0.0549 -1.79069,-0.28452 z m 8.54065,0.13974 c 1.64842,-0.0938 1.64842,-0.0938 1.72534,-5.70371 l 0.0769,-5.6099 0.0606,5.75468 c 0.0606,5.75473 0.0606,5.75473 -1.72534,5.70375 -1.78594,-0.051 -1.78594,-0.051 -0.13752,-0.14478 z m 10.85314,0.0205 c 0.1819,-0.0734 0.47956,-0.0734 0.66146,0 0.1819,0.0734 0.0331,0.13346 -0.33073,0.13346 -0.3638,0 -0.51263,-0.0601 -0.33073,-0.13346 z m 11.26547,-1.54452 c 10e-4,-1.01865 0.049,-1.40294 0.10627,-0.854 0.0573,0.54895 0.0563,1.38239 -0.002,1.85209 -0.0584,0.4697 -0.10531,0.0206 -0.10413,-0.99809 z m -17.84766,0.99219 c -0.3291,-0.41965 -0.31975,-0.42901 0.0999,-0.0999 0.25466,0.19972 0.46302,0.40808 0.46302,0.46302 0,0.21776 -0.21727,0.0776 -0.56292,-0.36312 z m 11.45261,-2.18282 c 0,-0.3638 0.0601,-0.51263 0.13345,-0.33072 0.0734,0.1819 0.0734,0.47955 0,0.66145 -0.0734,0.1819 -0.13345,0.0331 -0.13345,-0.33073 z m -8.91619,-0.54676 c -0.0959,-0.15521 -0.11766,-0.33894 -0.0483,-0.40829 0.0693,-0.0694 0.1966,0.0576 0.28277,0.28218 0.17891,0.46623 0.0264,0.54824 -0.23447,0.12611 z m 3.38935,0.0988 c 0.25743,-0.0671 0.61462,-0.0627 0.79375,0.01 0.17913,0.0725 -0.0315,0.12737 -0.46806,0.12197 -0.43656,-0.005 -0.58312,-0.0647 -0.32569,-0.13177 z m -1.84612,-1.86519 c 0.98832,-0.051 2.53613,-0.0507 3.43959,8e-4 0.90345,0.0515 0.0948,0.0933 -1.79695,0.0928 -1.89177,-5.3e-4 -2.63096,-0.0426 -1.64264,-0.0936 z m -0.94294,-3.1695 c 0.46969,-0.0584 1.30313,-0.0594 1.85208,-0.002 0.54895,0.0573 0.16465,0.1051 -0.854,0.10628 -1.01864,10e-4 -1.46778,-0.0457 -0.99808,-0.10414 z m -6.84087,-5.03456 c -0.32911,-0.41965 -0.31975,-0.42901 0.0999,-0.0999 0.44073,0.34565 0.58089,0.56292 0.36313,0.56292 -0.0549,0 -0.2633,-0.20836 -0.46302,-0.46302 z m 15.13589,-1.01424 c 0.0127,-0.30822 0.0754,-0.37092 0.15985,-0.15985 0.0764,0.19099 0.067,0.4192 -0.0209,0.50712 -0.0879,0.0879 -0.15045,-0.0684 -0.13896,-0.34727 z m 0.26458,-2.11666 c 0.0127,-0.30823 0.0754,-0.37092 0.15985,-0.15986 0.0764,0.191 0.067,0.4192 -0.0209,0.50712 -0.0879,0.0879 -0.15045,-0.0684 -0.13896,-0.34726 z m -37.56516,-49.77373 c 0.19265,-0.32081 0.40723,-0.52633 0.47684,-0.45672 0.0696,0.0696 -0.088,0.33208 -0.35028,0.58327 -0.4556,0.43638 -0.46124,0.43074 -0.12656,-0.12655 z m -10.85359,-1.29086 c 0.0127,-0.30822 0.0754,-0.37091 0.15985,-0.15985 0.0764,0.191 0.067,0.4192 -0.0209,0.50712 -0.0879,0.0879 -0.15045,-0.0684 -0.13896,-0.34727 z m -3.70417,-1.05833 c 0.0127,-0.30822 0.0754,-0.37092 0.15985,-0.15985 0.0764,0.19099 0.067,0.4192 -0.0209,0.50712 -0.0879,0.0879 -0.15046,-0.0684 -0.13897,-0.34727 z m 13.27946,-9.02485 c 0.25743,-0.0671 0.61462,-0.0627 0.79375,0.01 0.17913,0.0725 -0.0315,0.12736 -0.46806,0.12197 -0.43656,-0.005 -0.58312,-0.0647 -0.32569,-0.13177 z m 5.81944,-0.006 c 0.40218,-0.0608 0.99749,-0.0592 1.32291,0.004 0.32543,0.0628 -0.004,0.11256 -0.73124,0.11058 -0.7276,-0.002 -0.99386,-0.0534 -0.59167,-0.11419 z m 4.69271,-0.17871 c 0,-0.0572 0.18478,-0.17489 0.41062,-0.26155 0.23546,-0.0904 0.34166,-0.046 0.24897,0.10398 -0.15538,0.25141 -0.65959,0.37186 -0.65959,0.15757 z m -23.33294,-1.66425 c 0.191,-0.0764 0.4192,-0.067 0.50712,0.0209 0.0879,0.0879 -0.0684,0.15045 -0.34727,0.13897 -0.30822,-0.0127 -0.37092,-0.0754 -0.15985,-0.15986 z m 2.43086,-0.18529 c 0,-0.0558 0.29405,-0.15766 0.65345,-0.22637 0.3594,-0.0687 0.5905,-0.023 0.51355,0.10145 -0.13548,0.21922 -1.167,0.32964 -1.167,0.12492 z m 10.84792,-0.26649 c 0,-0.0568 0.40836,-0.15102 0.90748,-0.20928 0.49911,-0.0583 0.84928,-0.0118 0.77813,0.10334 -0.12803,0.20717 -1.68561,0.30506 -1.68561,0.10594 z m 5.55608,-0.0951 c -9e-5,-0.10914 0.62499,-0.16406 1.38907,-0.12204 2.32901,0.12809 2.54937,0.2465 0.52933,0.28445 -1.05503,0.0198 -1.91831,-0.0533 -1.9184,-0.16241 z m 0.41405,-1.20204 c 0.0994,-0.26093 0.24731,-0.40778 0.32877,-0.32631 0.0815,0.0815 1.7e-4,0.29495 -0.18065,0.47443 -0.26131,0.25936 -0.2917,0.22897 -0.14812,-0.14812 z m -15.16077,-3.55188 c 0.40219,-0.0608 0.9975,-0.0592 1.32292,0.004 0.32542,0.0628 -0.004,0.11256 -0.73124,0.11057 -0.72761,-0.002 -0.99386,-0.0534 -0.59168,-0.11418 z m -1.97147,-0.25546 c 0.19099,-0.0764 0.4192,-0.067 0.50712,0.0209 0.0879,0.0879 -0.0684,0.15045 -0.34727,0.13897 -0.30823,-0.0127 -0.37092,-0.0754 -0.15985,-0.15985 z m 21.28745,-0.003 c 0.25744,-0.0671 0.61462,-0.0627 0.79375,0.01 0.17914,0.0725 -0.0315,0.12736 -0.46805,0.12197 -0.43656,-0.005 -0.58313,-0.0647 -0.3257,-0.13177 z m -22.30148,-0.4845 c -0.18408,-0.2218 -0.28345,-0.45451 -0.22082,-0.51713 0.0626,-0.0626 0.25919,0.11884 0.43682,0.40327 0.38412,0.61508 0.25602,0.68261 -0.216,0.11386 z m 2.60153,-1.36497 c 0.19099,-0.0764 0.4192,-0.067 0.50712,0.0209 0.0879,0.0879 -0.0684,0.15045 -0.34727,0.13896 -0.30823,-0.0127 -0.37092,-0.0754 -0.15985,-0.15985 z m 22.78375,-11.39475 c -0.64144,-0.7276 -0.64144,-0.7276 0.0862,-0.0862 0.68006,0.59952 0.84894,0.81378 0.64143,0.81378 -0.0474,0 -0.37481,-0.32743 -0.7276,-0.72761 z"
       id="path314" /><path
       style="fill:#ae8c6a;stroke-width:0.264583"
       d="m 626.54803,266.45143 c 0.32743,-0.0631 0.86321,-0.0631 1.19063,0 0.32742,0.0631 0.0595,0.11466 -0.59531,0.11466 -0.65485,0 -0.92274,-0.0516 -0.59532,-0.11466 z m 11.50938,0.004 c 0.25466,-0.0666 0.67138,-0.0666 0.92604,0 0.25466,0.0666 0.0463,0.121 -0.46302,0.121 -0.50932,0 -0.71768,-0.0545 -0.46302,-0.121 z m 21.29896,-0.004 c 0.32742,-0.0631 0.8632,-0.0631 1.19062,0 0.32742,0.0631 0.0595,0.11466 -0.59531,0.11466 -0.65484,0 -0.92273,-0.0516 -0.59531,-0.11466 z m -23.51552,-0.80547 c -0.32911,-0.41964 -0.31975,-0.429 0.0999,-0.0999 0.25466,0.19972 0.46302,0.40808 0.46302,0.46302 0,0.21776 -0.21727,0.0776 -0.56291,-0.36313 z m 34.37997,0.0177 c 0.191,-0.0764 0.4192,-0.067 0.50712,0.0209 0.0879,0.0879 -0.0684,0.15045 -0.34727,0.13896 -0.30822,-0.0127 -0.37092,-0.0754 -0.15985,-0.15985 z m 7.39654,-0.011 c 0.47555,-0.0589 1.18992,-0.0577 1.5875,0.003 0.39757,0.0604 0.008,0.10855 -0.86464,0.10706 -0.87312,-0.002 -1.19841,-0.0509 -0.72286,-0.10976 z m 6.60984,0.0165 c 0.1819,-0.0734 0.47956,-0.0734 0.66146,0 0.1819,0.0734 0.0331,0.13346 -0.33073,0.13346 -0.3638,0 -0.51263,-0.0601 -0.33073,-0.13346 z m -7.00554,-3.26437 c 0,-0.65485 0.0516,-0.92274 0.11466,-0.59531 0.0631,0.32742 0.0631,0.8632 0,1.19062 -0.0631,0.32742 -0.11466,0.0595 -0.11466,-0.59531 z m -20.87314,-2.24896 c 5.3e-4,-1.74625 0.0433,-2.42619 0.0952,-1.51099 0.0518,0.91521 0.0514,2.34396 -10e-4,3.175 -0.0523,0.83104 -0.0947,0.0822 -0.0942,-1.66401 z m 21.26884,-1.11779 c 0.47555,-0.0589 1.18992,-0.0577 1.5875,0.003 0.39757,0.0604 0.008,0.10855 -0.86464,0.10706 -0.87312,-0.002 -1.19841,-0.0509 -0.72286,-0.10976 z m 5.31424,-1.19817 c 0.13331,-0.13331 0.524,-0.19808 0.86821,-0.14394 0.52961,0.0833 0.49235,0.12058 -0.24238,0.24238 -0.52579,0.0872 -0.77261,0.0483 -0.62583,-0.0984 z m -46.97502,-2.44654 c 0.002,-0.87312 0.0509,-1.19841 0.10977,-0.72287 0.0589,0.47555 0.0577,1.18993 -0.003,1.5875 -0.0604,0.39758 -0.10855,0.008 -0.10707,-0.86463 z m 21.08468,-0.76135 c 0,-0.055 0.20836,-0.2633 0.46302,-0.46303 0.41965,-0.3291 0.42901,-0.31974 0.0999,0.0999 -0.34564,0.44073 -0.56292,0.58089 -0.56292,0.36313 z m -15.80382,-1.1418 c 0.25744,-0.0671 0.61462,-0.0627 0.79375,0.01 0.17914,0.0725 -0.0315,0.12736 -0.46805,0.12197 -0.43656,-0.005 -0.58313,-0.0647 -0.3257,-0.13177 z m 14.83018,-2.19789 c 0,-0.94589 0.048,-1.33284 0.10671,-0.8599 0.0587,0.47295 0.0587,1.24685 0,1.71979 -0.0587,0.47295 -0.10671,0.086 -0.10671,-0.85989 z m -32.67805,-25.58074 c 0.191,-0.0764 0.4192,-0.067 0.50712,0.0209 0.0879,0.0879 -0.0684,0.15045 -0.34727,0.13896 -0.30822,-0.0127 -0.37092,-0.0754 -0.15985,-0.15985 z m 47.47617,-22.75581 c 0.25466,-0.0666 0.67138,-0.0666 0.92604,0 0.25467,0.0666 0.0463,0.121 -0.46302,0.121 -0.50932,0 -0.71768,-0.0545 -0.46302,-0.121 z m 3.43959,0 c 0.25466,-0.0666 0.67138,-0.0666 0.92604,0 0.25466,0.0666 0.0463,0.121 -0.46302,0.121 -0.50933,0 -0.71769,-0.0545 -0.46302,-0.121 z"
       id="path312" /><path
       style="fill:#906232;stroke-width:0.264583"
       d="m 631.32707,266.19283 c 0.191,-0.0764 0.4192,-0.067 0.50712,0.0209 0.0879,0.0879 -0.0684,0.15046 -0.34727,0.13897 -0.30822,-0.0127 -0.37092,-0.0754 -0.15985,-0.15985 z m 12.15904,-0.011 c 0.47555,-0.0589 1.18992,-0.0577 1.5875,0.003 0.39757,0.0604 0.008,0.10855 -0.86464,0.10707 -0.87312,-0.002 -1.19841,-0.0509 -0.72286,-0.10977 z m 5.54561,8e-4 c 0.46969,-0.0585 1.30313,-0.0594 1.85208,-0.002 0.54895,0.0573 0.16465,0.1051 -0.854,0.10627 -1.01864,10e-4 -1.46778,-0.0457 -0.99808,-0.10414 z m 14.8391,0.0102 c 0.191,-0.0764 0.4192,-0.067 0.50712,0.0209 0.0879,0.0879 -0.0684,0.15046 -0.34727,0.13897 -0.30822,-0.0127 -0.37092,-0.0754 -0.15985,-0.15985 z m -6.59872,-0.54687 c -0.32911,-0.41964 -0.31975,-0.429 0.0999,-0.0999 0.44073,0.34564 0.58089,0.56291 0.36313,0.56291 -0.0549,0 -0.2633,-0.20835 -0.46302,-0.46302 z m -33.60209,-0.26458 c -0.3291,-0.41964 -0.31974,-0.429 0.0999,-0.0999 0.44073,0.34565 0.58089,0.56292 0.36312,0.56292 -0.0549,0 -0.2633,-0.20836 -0.46302,-0.46302 z m 62.5368,-0.59531 c 0,-0.50932 0.0544,-0.71768 0.12101,-0.46302 0.0665,0.25466 0.0665,0.67138 0,0.92604 -0.0666,0.25466 -0.12101,0.0463 -0.12101,-0.46302 z m -8.19732,-0.71155 c 0.25466,-0.0666 0.67138,-0.0666 0.92604,0 0.25467,0.0666 0.0463,0.121 -0.46302,0.121 -0.50932,0 -0.71768,-0.0544 -0.46302,-0.121 z m -2.62729,-1.6697 c 0,-0.94589 0.048,-1.33284 0.10671,-0.8599 0.0587,0.47294 0.0587,1.24685 0,1.71979 -0.0587,0.47295 -0.10671,0.086 -0.10671,-0.85989 z m -10.71763,0.87759 c 0.191,-0.0764 0.4192,-0.067 0.50712,0.0209 0.0879,0.0879 -0.0684,0.15045 -0.34727,0.13896 -0.30822,-0.0127 -0.37092,-0.0754 -0.15985,-0.15985 z m -32.27917,-0.26458 c 0.191,-0.0764 0.4192,-0.067 0.50712,0.0209 0.0879,0.0879 -0.0684,0.15046 -0.34726,0.13897 -0.30823,-0.0127 -0.37092,-0.0754 -0.15986,-0.15985 z m 27.35328,-0.7453 c 0.005,-0.43657 0.0647,-0.58313 0.13177,-0.3257 0.0671,0.25743 0.0627,0.61462 -0.01,0.79375 -0.0725,0.17913 -0.12736,-0.0315 -0.12197,-0.46805 z m -19.82919,-1.11555 c 0.40018,-0.0606 1.05503,-0.0606 1.45521,0 0.40018,0.0606 0.0728,0.11022 -0.7276,0.11022 -0.80037,0 -1.12779,-0.0496 -0.72761,-0.11022 z m 38.1,-0.52205 c 0.25466,-0.0666 0.67138,-0.0666 0.92604,0 0.25467,0.0666 0.0463,0.121 -0.46302,0.121 -0.50932,0 -0.71768,-0.0545 -0.46302,-0.121 z m 3.96399,-0.61136 c 0,-0.50932 0.0544,-0.71768 0.121,-0.46302 0.0666,0.25466 0.0666,0.67138 0,0.92604 -0.0666,0.25466 -0.121,0.0463 -0.121,-0.46302 z m -22.225,-2.11667 c 0,-0.50932 0.0544,-0.71768 0.121,-0.46302 0.0666,0.25466 0.0666,0.67138 0,0.92604 -0.0666,0.25466 -0.121,0.0463 -0.121,-0.46302 z m -12.42562,-0.18335 c 0.25743,-0.0671 0.61462,-0.0627 0.79375,0.01 0.17913,0.0725 -0.0315,0.12737 -0.46806,0.12197 -0.43656,-0.005 -0.58312,-0.0647 -0.32569,-0.13177 z m 5.93525,-0.0122 c 1.64081,-0.0936 1.64081,-0.0936 1.73591,-1.60266 0.0951,-1.50905 0.0951,-1.50905 0.14513,0.1446 0.05,1.65364 0.05,1.65364 -1.73591,1.60266 -1.78594,-0.051 -1.78594,-0.051 -0.14513,-0.14458 z m -15.84562,-1.0435 c 0.19099,-0.0764 0.4192,-0.067 0.50712,0.0209 0.0879,0.0879 -0.0684,0.15045 -0.34727,0.13897 -0.30823,-0.0127 -0.37092,-0.0754 -0.15985,-0.15986 z m 0.52916,-2.91042 c 0.191,-0.0764 0.4192,-0.067 0.50712,0.0209 0.0879,0.0879 -0.0684,0.15046 -0.34726,0.13897 -0.30823,-0.0127 -0.37092,-0.0754 -0.15986,-0.15985 z m 22.47305,-0.27758 c 0.61846,-0.0557 1.6305,-0.0557 2.24896,0 0.61846,0.0557 0.11245,0.10129 -1.12448,0.10129 -1.23693,0 -1.74294,-0.0456 -1.12448,-0.10129 z m -8.06979,-3.9574 c 0.25466,-0.0666 0.67138,-0.0666 0.92604,0 0.25466,0.0665 0.0463,0.121 -0.46302,0.121 -0.50932,0 -0.71768,-0.0545 -0.46302,-0.121 z m 15.49466,-15.34419 c 0.191,-0.0764 0.4192,-0.067 0.50712,0.0209 0.0879,0.0879 -0.0684,0.15045 -0.34727,0.13896 -0.30822,-0.0127 -0.37092,-0.0754 -0.15985,-0.15985 z m 10.05417,0 c 0.19099,-0.0764 0.4192,-0.067 0.50712,0.0209 0.0879,0.0879 -0.0684,0.15045 -0.34727,0.13896 -0.30823,-0.0127 -0.37092,-0.0754 -0.15985,-0.15985 z m -43.05659,-2.61943 c 0.0127,-0.30823 0.0754,-0.37092 0.15985,-0.15985 0.0764,0.19099 0.067,0.4192 -0.0209,0.50712 -0.0879,0.0879 -0.15046,-0.0684 -0.13897,-0.34727 z m 76.75006,-1.16856 c 0,-0.36381 0.06,-0.51263 0.13345,-0.33073 0.0734,0.1819 0.0734,0.47955 0,0.66146 -0.0734,0.1819 -0.13345,0.0331 -0.13345,-0.33073 z m -65.10839,-2.27101 c 0.0127,-0.30823 0.0754,-0.37092 0.15985,-0.15985 0.0764,0.19099 0.067,0.4192 -0.0209,0.50712 -0.0879,0.0879 -0.15045,-0.0684 -0.13896,-0.34727 z M 622.18744,225.709 c 0.25744,-0.0671 0.61462,-0.0627 0.79375,0.01 0.17914,0.0725 -0.0315,0.12736 -0.46805,0.12197 -0.43656,-0.005 -0.58313,-0.0647 -0.3257,-0.13177 z m 77.77771,-0.6104 c 0,-0.50932 0.0544,-0.71768 0.121,-0.46302 0.0666,0.25466 0.0666,0.67138 0,0.92604 -0.0666,0.25466 -0.121,0.0463 -0.121,-0.46302 z m -73.136,0.34843 c 0.191,-0.0764 0.4192,-0.067 0.50712,0.0209 0.0879,0.0879 -0.0684,0.15046 -0.34726,0.13897 -0.30823,-0.0127 -0.37092,-0.0754 -0.15986,-0.15985 z m 3.175,-0.26459 c 0.191,-0.0764 0.4192,-0.067 0.50712,0.0209 0.0879,0.0879 -0.0684,0.15045 -0.34726,0.13896 -0.30823,-0.0127 -0.37092,-0.0754 -0.15986,-0.15985 z m 16.21009,-1.29651 c 0.0127,-0.30823 0.0754,-0.37092 0.15985,-0.15986 0.0764,0.191 0.067,0.4192 -0.0209,0.50712 -0.0879,0.0879 -0.15045,-0.0684 -0.13896,-0.34726 z m -34.83874,-0.44098 c -0.50403,-0.59531 -0.50403,-0.59531 0.0913,-0.0913 0.55945,0.47366 0.71577,0.6866 0.50403,0.6866 -0.0502,0 -0.31809,-0.26789 -0.59531,-0.59532 z m 9.88087,-6.99974 c 0.32742,-0.0631 0.8632,-0.0631 1.19062,0 0.32742,0.0631 0.0595,0.11466 -0.59531,0.11466 -0.65484,0 -0.92273,-0.0516 -0.59531,-0.11466 z m 6.08541,-0.25309 c 0.18191,-0.0734 0.47956,-0.0734 0.66146,0 0.1819,0.0734 0.0331,0.13346 -0.33073,0.13346 -0.3638,0 -0.51263,-0.0601 -0.33073,-0.13346 z m 3.72071,-0.27009 c 0.19099,-0.0764 0.4192,-0.067 0.50712,0.0209 0.0879,0.0879 -0.0684,0.15046 -0.34727,0.13897 -0.30823,-0.0127 -0.37092,-0.0754 -0.15985,-0.15985 z m 38.48537,-12.9672 c 0.25743,-0.0671 0.61462,-0.0627 0.79375,0.01 0.17913,0.0725 -0.0315,0.12736 -0.46806,0.12197 -0.43656,-0.005 -0.58312,-0.0647 -0.32569,-0.13178 z m 6.35,0 c 0.25743,-0.0671 0.61462,-0.0627 0.79375,0.01 0.17913,0.0725 -0.0315,0.12736 -0.46806,0.12197 -0.43656,-0.005 -0.58312,-0.0647 -0.32569,-0.13178 z m -21.2716,-3.71925 c -0.3291,-0.41964 -0.31975,-0.429 0.0999,-0.0999 0.25466,0.19972 0.46302,0.40808 0.46302,0.46302 0,0.21777 -0.21727,0.0776 -0.56292,-0.36312 z m -43.22562,-8.7974 c 0.26339,-0.29104 0.53842,-0.52916 0.61118,-0.52916 0.0728,0 -0.0832,0.23812 -0.3466,0.52916 -0.26339,0.29105 -0.53842,0.52917 -0.61118,0.52917 -0.0728,0 0.0832,-0.23812 0.3466,-0.52917 z m 34.8136,-0.6835 c 0.0127,-0.30823 0.0754,-0.37092 0.15985,-0.15985 0.0764,0.19099 0.067,0.41919 -0.0209,0.50711 -0.0879,0.0879 -0.15045,-0.0684 -0.13896,-0.34726 z m -29.17467,-1.87848 c 0.191,-0.0764 0.4192,-0.067 0.50712,0.0209 0.0879,0.0879 -0.0684,0.15045 -0.34727,0.13897 -0.30822,-0.0127 -0.37092,-0.0754 -0.15985,-0.15986 z m 82.90597,-0.8776 c 0,-0.3638 0.06,-0.51263 0.13345,-0.33073 0.0734,0.1819 0.0734,0.47956 0,0.66146 -0.0734,0.1819 -0.13345,0.0331 -0.13345,-0.33073 z m -53.46672,-2.00642 c 0.0127,-0.30823 0.0754,-0.37092 0.15985,-0.15985 0.0764,0.19099 0.067,0.41919 -0.0209,0.50711 -0.0879,0.0879 -0.15045,-0.0683 -0.13896,-0.34726 z m -11.64167,-3.175 c 0.0127,-0.30823 0.0754,-0.37092 0.15985,-0.15985 0.0764,0.19099 0.067,0.41919 -0.0209,0.50711 -0.0879,0.0879 -0.15046,-0.0684 -0.13897,-0.34726 z m 76.72917,-0.26458 c 0.0127,-0.30823 0.0754,-0.37092 0.15985,-0.15986 0.0764,0.191 0.067,0.4192 -0.0209,0.50712 -0.0879,0.0879 -0.15045,-0.0684 -0.13896,-0.34726 z m -14.358,-14.3139 c 0.191,-0.0764 0.4192,-0.067 0.50712,0.0209 0.0879,0.0879 -0.0683,0.15046 -0.34727,0.13897 -0.30822,-0.0127 -0.37092,-0.0754 -0.15985,-0.15985 z"
       id="path310" /><path
       style="fill:#134a8b;stroke-width:0.264583"
       d="m 701.02584,265.24909 c -1.30012,-1.3879 -1.7036,-9.41344 -0.589,-11.71588 1.22351,-2.52745 7.49992,-2.52745 8.72343,0 1.90758,3.94053 0.68371,7.01952 -2.79019,7.01952 -3.32326,0 -3.32326,0 -3.24114,0.99219 0.0821,0.99219 0.0821,0.99219 3.20357,0.94608 3.57965,-0.0529 5.01423,2.68491 1.64104,3.13178 -3.2398,0.42921 -6.35242,0.26179 -6.94771,-0.37369 z m 5.49251,-8.51117 c 0,-1.56189 -0.17731,-1.74143 -1.7198,-1.74143 -1.54248,0 -1.71979,0.17954 -1.71979,1.74143 0,0.9044 0,0.9044 1.71979,0.9044 1.7198,0 1.7198,0 1.7198,-0.9044 z m 7.0776,8.8207 c -1.06238,-0.61877 -1.3508,-1.79513 -1.47064,-5.99807 -0.10638,-3.73062 -0.15254,-4.0349 -0.61205,-4.0349 -0.83247,0 -0.7375,-3.36862 0.0983,-3.48733 0.41117,-0.0584 0.61738,-0.28914 0.66666,-0.746 0.26387,-2.44596 0.21516,-2.38125 1.79272,-2.38125 1.44322,0 1.44322,0 1.44322,1.5875 0,1.5875 0,1.5875 1.19062,1.5875 1.19063,0 1.19063,0 1.19063,1.71979 0,1.71979 0,1.71979 -1.19853,1.71979 -2.04367,0 -1.71089,6.70885 0.33863,6.82685 1.38907,0.08 1.38907,0.08 1.38907,1.78594 0,1.68311 -2.90853,2.53855 -4.82865,1.42018 z m -25.59844,-6.72568 c 0,-6.74687 0,-6.74687 1.45521,-6.74687 1.35024,0 1.45521,0.0448 1.45521,0.62054 0,0.62053 0,0.62053 1.49249,-0.1323 4.51363,-2.27672 5.65126,-0.80642 5.65126,7.30383 0,5.70168 0,5.70168 -1.58166,5.70168 -1.58166,0 -1.58166,0 -1.65365,-4.96094 -0.072,-4.96094 -0.072,-4.96094 -1.14574,-5.03982 -2.48073,-0.18224 -2.49812,-0.14584 -2.49812,5.23171 0,4.76905 0,4.76905 -1.5875,4.76905 -1.5875,0 -1.5875,0 -1.5875,-6.74688 z m -26.39775,-59.04687 c -1.70502,-0.68601 -1.23082,-4.41157 1.32843,-10.43678 0.40631,-0.95658 0.40631,-0.95658 -1.28363,-1.11439 -4.10078,-0.38294 -3.78758,-1.58939 0.50398,-1.94136 2.34473,-0.19229 2.27436,-0.12344 3.64037,-3.56224 0.69664,-1.75373 0.69664,-1.75373 -1.23779,-1.87788 -4.449,-0.28552 -3.71096,-1.59317 1.10826,-1.9636 2.22702,-0.17119 3.504,-2.10285 7.13498,-10.79301 0.66834,-1.59957 2.08547,-1.83462 3.29549,-0.54662 0.7783,0.82847 0.75651,1.89903 -0.0655,3.2188 -0.98987,1.58926 -4.16636,7.44591 -4.16684,7.6826 -2.3e-4,0.11694 1.65102,0.17675 3.66946,0.13293 3.81322,-0.0828 5.01919,-1.54036 8.29952,-10.03102 0.76747,-1.98647 1.95078,-2.3885 3.26915,-1.11068 1.16129,1.12556 1.14158,1.7225 -0.12873,3.89917 -1.61854,2.77336 -3.73189,6.71762 -3.73189,6.96504 0,0.12368 0.70774,0.22488 1.57275,0.22488 1.276,0 1.71119,0.11908 2.30651,0.63115 1.06829,0.91891 0.52347,1.47894 -1.46426,1.50512 -3.46254,0.0456 -3.72443,0.16679 -4.81811,2.22935 -1.66511,3.1402 -1.68878,3.04271 0.73891,3.04271 2.13682,0 3.2517,0.41017 3.2517,1.19632 0,0.66787 -0.97878,0.92034 -3.56798,0.92034 -2.54443,0 -2.54443,0 -2.92933,0.92118 -0.81773,1.95711 -3.02769,8.7028 -3.02769,9.24175 0,1.51318 -1.77851,2.31872 -2.7498,1.24545 -1.27795,-1.41212 -1.08554,-2.93291 1.10107,-8.70301 1.11495,-2.94217 1.46379,-2.63921 -2.87677,-2.49846 -3.43995,0.11154 -6.85158,5.30979 -6.85158,10.43965 0,0.99774 -1.17234,1.54464 -2.32067,1.08261 z m 14.50406,-14.90417 c 2.1137,-4.02646 2.14254,-3.96874 -1.98321,-3.96874 -3.50142,0 -5.70226,1.80564 -5.70226,4.67832 0,0.96725 7.15185,0.30694 7.68547,-0.70958 z"
       id="path308" /><path
       style="fill:#763d02;stroke-width:0.264583"
       d="m 624.36884,265.79998 c -1.51701,-1.19328 -2.2363,-10.96636 -1.02916,-13.9833 1.10612,-2.76446 10.68283,-3.25493 10.68283,-0.54713 0,1.61027 0,1.61027 -3.42068,1.61027 -4.52468,0 -4.2533,-0.33502 -4.24818,5.24442 0.005,5.49296 0.70265,5.99545 6.80897,4.90448 0.85989,-0.15363 0.85989,-0.15363 0.85989,1.4241 0,1.57773 0,1.57773 -2.18281,1.74765 -4.47022,0.34799 -6.66918,0.23011 -7.47086,-0.40049 z m 12.06585,0.14213 c -1.27706,-0.89448 -1.77895,-3.85979 -0.97781,-5.77718 0.5586,-1.33693 1.55383,-1.72886 4.39009,-1.72886 2.41115,0 2.41115,0 2.32824,-0.8599 -0.0829,-0.85989 -0.0829,-0.85989 -3.05947,-0.85047 -3.80798,0.0121 -4.86029,-2.53312 -1.19062,-2.8797 7.33028,-0.6923 7.735,-0.2896 7.73758,7.69892 10e-4,4.56406 10e-4,4.56406 -1.58602,4.56406 -1.41111,0 -1.5875,-0.0588 -1.5875,-0.52916 0,-0.64677 0.1272,-0.6586 -1.4339,0.1334 -1.55261,0.78768 -3.67285,0.89272 -4.62059,0.22889 z m 4.81337,-2.86766 c 0.94505,-0.15971 1.00274,-0.22296 0.92604,-1.01529 -0.155,-1.60117 -3.65367,-1.27984 -3.65367,0.33557 0,0.7689 0.45873,1.08982 1.32292,0.92551 0.21828,-0.0415 0.8504,-0.15211 1.40471,-0.24579 z m 16.2604,2.52771 c -0.96457,-0.86113 -1.48671,-8.25394 -0.71462,-10.11794 1.01364,-2.44713 8.2078,-2.72914 9.44091,-0.37008 1.94414,3.71936 0.68647,6.49693 -2.94179,6.49693 -3.56423,0 -3.60582,0.007 -3.60181,0.59531 0.009,1.25045 0.25263,1.33379 3.53856,1.20801 3.07197,-0.11758 3.07197,-0.11758 3.07197,1.24968 0,1.91553 -6.87663,2.64915 -8.79322,0.93809 z m 5.8828,-7.77463 c 0,-1.51888 -2.72675,-2.31089 -3.43027,-0.99636 -0.7746,1.44736 -0.41825,1.86948 1.57819,1.86948 1.85208,0 1.85208,0 1.85208,-0.87312 z m -15.08125,4.04812 c 0,-4.23333 0,-4.23333 -0.66146,-4.23333 -0.62537,0 -0.66145,-0.0794 -0.66145,-1.45521 0,-1.35301 0.0439,-1.45521 0.62471,-1.45521 0.57288,0 0.63695,-0.13507 0.77233,-1.62801 0.26523,-2.925 1.36802,-3.6465 5.28369,-3.45688 3.45394,0.16726 3.70467,3.10052 0.26502,3.10052 -2.05096,0 -2.05096,0 -2.13308,0.99218 -0.0821,0.99219 -0.0821,0.99219 1.52135,0.99219 1.60348,0 1.60348,0 1.60348,1.45521 0,1.45521 0,1.45521 -1.5875,1.45521 -1.5875,0 -1.5875,0 -1.5875,4.23333 0,4.23333 0,4.23333 -1.7198,4.23333 -1.71979,0 -1.71979,0 -1.71979,-4.23333 z m 26.03627,-0.39687 c 2.7e-4,-2.32834 0.0408,-3.24542 0.09,-2.03796 0.0491,1.20746 0.0489,3.11246 -5.3e-4,4.23333 -0.0495,1.12088 -0.0897,0.13296 -0.0893,-2.19537 z m -4.00379,0.92604 c 0,-0.65485 0.0516,-0.92274 0.11466,-0.59531 0.0631,0.32742 0.0631,0.8632 0,1.19062 -0.0631,0.32742 -0.11466,0.0595 -0.11466,-0.59531 z m -3.8777,-28.33622 c -7.05471,-0.74407 -12.62899,-2.75778 -13.77646,-4.97674 -0.60599,-1.17185 -0.62119,-31.00494 -0.0161,-31.50716 0.56233,-0.46669 1.17388,-0.13945 1.50283,0.80416 2.12311,6.09037 35.42689,6.13501 37.969,0.0509 0.42395,-1.01465 0.98138,-1.32308 1.54532,-0.85505 0.79138,0.65678 0.56187,30.58285 -0.24363,31.76825 -2.45329,3.61035 -15.62833,5.91304 -26.981,4.71565 z m -51.03337,-8.44492 c -5.68558,-1.44931 -6.80786,-4.48256 -6.80213,-18.38448 0.008,-18.36653 0.72661,-19.19973 16.72812,-19.38385 10.43228,-0.12004 10.11713,-0.30865 9.1761,5.49163 -0.66133,4.07625 -0.45369,3.97034 -7.78419,3.97034 -8.69441,0 -7.80806,-1.0732 -7.80806,9.4541 0,10.95583 -0.56027,10.55608 12.86431,9.17858 1.61952,-0.16618 1.61952,-0.16618 2.0535,1.10747 0.40081,1.17633 1.15712,7.40382 0.9264,7.62808 -0.53989,0.52477 -17.71059,1.35706 -19.35405,0.93813 z m 89.64873,-21.34964 c -0.14359,-0.37708 -0.1132,-0.40747 0.14811,-0.14811 0.18082,0.17948 0.26212,0.39297 0.18065,0.47443 -0.0815,0.0815 -0.2294,-0.0654 -0.32876,-0.32632 z m -1.72914,-1.65472 c -0.21407,-0.13538 -0.32033,-0.31503 -0.23614,-0.39921 0.0842,-0.0842 0.30368,0.0284 0.48775,0.25019 0.38169,0.4599 0.3085,0.50325 -0.25161,0.14902 z m 5.41629,-30.43741 c -0.0899,-0.14553 -0.0374,-0.26459 0.11668,-0.26459 0.15411,0 0.2802,0.11906 0.2802,0.26459 0,0.14552 -0.0525,0.26458 -0.11668,0.26458 -0.0642,0 -0.19026,-0.11906 -0.2802,-0.26458 z"
       id="path306" /><path
       style="fill:#000000;stroke-width:0.264583"
       d="m 669.12081,265.09596 c -1.6978,-1.87605 -0.28596,-5.86614 2.07566,-5.86614 1.45521,0 1.45521,0 1.45521,-1.05834 0,-0.99953 0.0441,-1.05833 0.79375,-1.05833 0.79375,0 0.79375,0 0.79375,4.23333 0,4.44374 -0.27819,5.17223 -1.50618,3.94424 -0.20907,-0.20907 -0.43862,-0.20907 -0.82927,0 -0.84346,0.45141 -2.28975,0.35019 -2.78292,-0.19476 z m 3.47793,-2.75729 c 0.0793,-1.52135 0.0793,-1.52135 -0.96388,-1.52135 -1.12703,0 -1.36443,0.27621 -1.36443,1.5875 0,2.39951 2.20297,2.33693 2.32831,-0.0661 z m 3.37913,2.82537 c -1.94645,-1.94645 -0.27913,-5.93422 2.48114,-5.93422 2.66508,0 2.79163,0.14392 2.79163,3.175 0,3.03497 -3.2804,4.75159 -5.27277,2.75922 z m 3.42068,-2.75922 c 0,-2.48948 -2.05697,-2.76663 -2.19784,-0.29612 -0.11248,1.97286 0.0158,2.1964 1.20353,2.09815 0.99431,-0.0822 0.99431,-0.0822 0.99431,-1.80203 z m 3.71917,2.58696 c -0.27442,-0.3918 -0.41187,-1.18647 -0.41187,-2.38125 0,-1.01909 -0.11422,-1.79321 -0.26459,-1.79321 -0.14552,0 -0.26458,-0.35719 -0.26458,-0.79375 0,-0.43656 0.10616,-0.79375 0.2359,-0.79375 0.12975,0 0.31061,-0.29766 0.40192,-0.66146 0.13063,-0.5205 0.33409,-0.66146 0.95472,-0.66146 0.6649,0 0.78871,0.10383 0.78871,0.66146 0,0.52917 0.13229,0.66146 0.66146,0.66146 0.55856,0 0.66146,0.12347 0.66146,0.79375 0,0.67027 -0.1029,0.79375 -0.66146,0.79375 -0.63206,0 -0.66146,0.0705 -0.66146,1.5875 0,1.5875 0,1.5875 0.79375,1.5875 0.70556,0 0.79375,0.0882 0.79375,0.79375 0,1.06642 -2.31469,1.22369 -3.02771,0.20571 z m -35.56467,-19.54865 c -1.36221,-0.12109 -2.62332,-0.34181 -2.80247,-0.49048 -0.17914,-0.14868 -0.39614,-0.1999 -0.4822,-0.11383 -0.0861,0.0861 -0.31324,0.0587 -0.50483,-0.0608 -0.19158,-0.1195 -0.56024,-0.25028 -0.81925,-0.29062 -5.44509,-0.84807 -7.69104,-5.69429 -8.12321,-17.52796 -0.4406,-12.06416 -1.8899,-14.76305 -8.3345,-15.52049 -1.94335,-0.2284 -2.40246,-10.16963 -0.46772,-10.12745 6.46821,0.14102 8.43388,-3.13937 8.81443,-14.70981 0.53177,-16.16865 3.65575,-19.44688 18.53183,-19.44688 3.90312,0 3.67819,10.03093 -0.22647,10.09943 -6.28005,0.11017 -6.128,-0.11901 -6.72269,10.13344 -0.6999,12.06623 -1.52733,14.42766 -6.23164,17.78458 -1.74312,1.24387 -1.74312,1.24387 -1.11188,1.6554 5.73385,3.73811 6.59012,6.14227 7.48662,21.02032 0.43354,7.19472 1.00922,7.83391 7.05563,7.83391 2.10365,0 2.10365,0 2.10365,5.02709 0,5.52877 0.10287,5.46912 -8.1653,4.73414 z m 43.35488,-4.70016 c 0,-4.9931 0,-4.9931 2.8539,-5.11068 5.673,-0.23374 5.97031,-0.72598 6.36227,-10.53372 0.43231,-10.8173 1.79077,-14.46879 6.61853,-17.79038 1.20217,-0.82711 1.20217,-0.82711 0.42851,-1.37409 -0.42551,-0.30084 -1.12509,-0.90418 -1.55462,-1.34074 -0.42953,-0.43656 -0.68211,-0.61515 -0.56129,-0.39687 0.12082,0.21828 -0.21493,-0.0134 -0.74611,-0.51493 -1.01105,-0.95454 -1.18951,-1.2175 -0.63504,-0.93574 0.1819,0.0924 0.0496,-0.0791 -0.2939,-0.38126 -0.34354,-0.30213 -0.52214,-0.55294 -0.39687,-0.55737 0.12526,-0.004 0.029,-0.12403 -0.21395,-0.2658 -1.34487,-0.78479 -2.26122,-5.81508 -2.6974,-14.8074 -0.44192,-9.11076 -0.54025,-9.26149 -6.18278,-9.47747 -4.3282,-0.16568 -4.81581,-10.1017 -0.49574,-10.1017 5.44643,0 10.0227,0.83551 12.54011,2.2895 1.46739,0.84754 3.00313,2.19895 2.82549,2.48638 -0.0764,0.12356 0.10595,0.35567 0.40514,0.51579 0.29919,0.16012 0.4741,0.40422 0.38867,0.54244 -0.0854,0.13822 -0.0222,0.25131 0.1405,0.25131 0.16269,0 0.22223,0.11906 0.13229,0.26458 -0.0899,0.14552 -0.0304,0.26459 0.13229,0.26459 0.1627,0 0.22223,0.11906 0.13229,0.26458 -0.0899,0.14552 -0.0176,0.26458 0.16078,0.26458 0.17836,0 0.24595,0.0783 0.1502,0.1741 -0.0958,0.0958 -0.0415,0.33387 0.12059,0.52916 0.16207,0.19529 0.206,0.35508 0.0976,0.35508 -0.1084,0 -0.0532,0.17337 0.12267,0.38528 0.17587,0.21191 0.24804,0.50134 0.16037,0.64318 -0.0877,0.14184 -0.0552,0.3223 0.0722,0.40102 0.39175,0.24212 0.59935,2.89933 0.81852,10.47676 0.31108,10.75528 1.39843,12.84079 7.29078,13.98356 2.94682,0.57151 3.67664,9.85312 0.80133,10.19106 -5.93032,0.69699 -8.05852,3.98344 -8.07527,12.47017 -0.033,16.69829 -2.44458,20.49136 -13.70736,21.5594 -7.42741,0.70434 -7.19471,0.85714 -7.19471,-4.72437 z"
       id="path304" /></g><metadata
     id="metadata5784"><rdf:RDF><cc:Work
         rdf:about=""><dc:creator><cc:Agent><dc:title>Fisharp</dc:title></cc:Agent></dc:creator><dc:rights><cc:Agent><dc:title>Creative Commons</dc:title></cc:Agent></dc:rights><dc:publisher><cc:Agent><dc:title>medium.com/@fisharp</dc:title></cc:Agent></dc:publisher></cc:Work></rdf:RDF></metadata></svg>
